<svg xmlns="http://www.w3.org/2000/svg" xml:space="preserve" width="909.657" height="30.73mm" viewBox="0 0 23872 3048" class="max-w_100% max-h_100%" style="shape-rendering: geometricprecision; text-rendering: geometricprecision; fill-rule: evenodd; clip-rule: evenodd; fill: white;">
  <g id="Layer_x0020_1">
    <g id="_2045956491184">
      <path d="M1096 1047C3863 599 4403 512 6931 0 5388 609 4703 801 4492 1832c0-942-341-785-3396-785zm0 0zM1096 1226l-9 7c-255 192-508 390-770 571l-34 25h765v144h316v-154c61-42 93-63 166-117l33-24h-199v-452h-268zm-48 274v178H815l233-178zm0 0z">
      </path>
      <path d="M2287 1223c-159-9-329 19-487 92l-1 1c-112 64-176 161-181 263-5 101 49 207 179 291l1 1c156 80 366 121 568 98 201-23 388-110 499-275l14-20c-112-2-230-4-328-4-18 27-66 66-127 87-59 20-133 33-201 33s-130-12-179-42c-48-30-83-81-84-160 1-74 37-125 87-158 51-32 116-47 185-48 137-2 285 51 316 135l4 11c121 3 219 5 329 8l-11-19c-73-131-232-232-429-274-49-11-100-17-154-20zm0 0zM3060 1229v744h339v-303h354c-4-52 1-107-2-151h-361l-3-135 424-3h16l8-7 165-121 34-24h-974zm0 0z">
      </path>
      <path d="M0 2153c2810 444 3169 458 5612 895-1231-387-1335-1107-1307-1526-404 723-799 658-4305 631zm0 0z">
      </path>
    </g>
    <path d="M7044 1198h604l-8 63h-270l-106 860h-64l105-860h-269l8-63zm16341 1168 422-753h65l-420 753h-67zm146-239-176-514h68l160 481-52 33zm-714-514-6 130-12-13c23-39 55-71 96-95 40-24 86-36 139-36 50 0 90 14 116 42 26 26 37 64 31 110l-45 370h-61l43-355c4-33-3-60-23-81-20-22-49-32-86-32-36 0-69 8-99 25-31 17-57 41-77 70s-32 63-37 102l-33 271h-61l63-508h52zm-628 515c-42 0-82-9-119-30-35-21-64-50-85-88-22-37-32-79-32-126 0-31 5-63 16-96 11-32 28-64 51-93s52-53 87-70c35-19 77-28 127-28 40 0 74 7 105 21 31 13 57 30 78 53 20 23 36 49 46 79l-12 17 27-154h54l-62 508h-60l17-148 9 24c-8 14-20 30-36 46-16 17-35 31-56 44s-43 24-70 31c-26 8-54 10-85 10zm30-50c35 0 68-7 98-22s56-36 78-62c21-27 34-58 41-93l8-74c-2-34-13-64-30-90-19-28-43-49-73-65-30-15-63-23-99-23-42 0-77 8-105 23-29 16-53 36-71 60-17 24-29 48-37 74s-12 50-12 71c0 37 9 71 26 102 18 30 41 54 72 72s66 27 104 27zm-699 53c-50 0-95-12-135-39s-66-60-80-99l17-16-44 389h-61l93-757h54l-16 166-14-37c28-41 65-75 113-101 46-26 94-40 143-40 45 0 86 10 120 30 36 20 64 47 84 82 21 35 30 74 30 120 0 55-13 104-40 151-27 45-63 82-109 110s-98 41-155 41zm0-53c45 0 85-11 122-33s65-51 87-88 33-76 33-119c0-37-8-70-25-98-16-28-39-51-67-68-29-16-62-25-97-25-38 0-73 9-106 25-32 17-59 39-81 68-23 27-38 60-46 98l-7 55c0 16 2 34 8 55s16 42 30 61c15 20 34 36 59 50 24 13 54 19 90 19zm-1181-465-11 137-5-23c25-39 58-70 99-93 41-24 85-35 135-35 42 0 74 10 99 31 24 20 38 49 42 86l-6 5c26-38 58-68 98-89 41-22 83-33 130-33 48 0 85 14 109 42 25 28 36 64 31 110l-44 370h-62l43-358c3-30-3-55-19-76-14-21-39-33-74-34-36 0-69 8-101 25-31 17-58 40-78 69-21 28-34 60-40 96l-35 278h-61l43-358c3-30-4-55-20-76-14-21-40-33-75-34-35 0-68 8-100 26-32 17-59 41-79 71-22 28-35 62-40 98l-34 273h-61l62-508h54zm-553 518c-33 0-66-5-97-17-32-12-59-28-83-50s-43-48-57-78-21-65-21-102c0-34 6-67 17-101 12-32 29-63 52-91s52-51 88-67c37-18 79-26 130-26 48 0 90 10 129 31 39 20 69 49 93 86 23 37 35 80 35 130 0 24-3 49-10 76s-18 53-32 78c-14 24-32 46-54 66-23 21-50 36-82 48-31 12-67 17-108 17zm2-51c52 0 93-12 126-36 33-23 57-52 73-88 14-36 22-72 22-106 0-31-5-59-14-83-11-24-26-44-44-62-19-17-41-31-65-41-23-9-48-14-74-14-51 0-92 12-125 35s-56 52-72 87c-16 36-24 72-24 109 0 38 9 73 27 103 17 29 41 53 72 70 30 17 63 26 98 26zm-441 0c-19 9-41 19-66 28-23 9-50 16-78 20-28 6-58 8-89 8-60 0-116-9-170-29-53-20-100-49-141-86-40-37-72-83-96-136s-35-114-35-180c0-44 5-88 16-135s28-93 52-138c24-44 55-84 94-120s85-63 140-85c55-21 120-32 193-32 55 0 105 8 152 25 46 16 86 36 121 61l-34 56c-29-23-64-42-105-57-40-14-84-22-130-23-77-1-144 12-198 37-55 26-100 61-135 104s-59 92-76 144c-17 54-25 106-25 159 0 56 10 106 29 152 18 46 45 86 80 119s75 58 121 76 95 28 149 28c27 0 53-3 78-8 25-6 48-12 70-21 21-8 41-16 59-25l24 58zm-1650 286 423-753h64l-419 753h-68zm147-239-177-514h69l160 481-52 33zm-343-42c-24 15-50 26-77 35-28 8-56 12-86 12-31 0-63-5-94-16-30-11-57-27-82-48s-44-47-59-77c-14-31-21-66-21-106 0-35 7-71 21-105 14-33 33-63 59-90 25-27 54-48 88-63 35-15 72-23 113-23s78 6 109 19c32 12 59 29 81 52l-38 41c-17-18-38-32-64-44-25-11-54-17-84-17-40 0-75 11-109 31-34 21-61 48-82 82s-31 73-31 116c0 35 8 69 26 99 17 29 40 53 71 71 30 18 66 27 105 27 24 0 46-4 67-11s39-16 58-27l29 42zm-911 43c-44 0-84-9-119-30-36-21-65-50-87-88-21-37-32-79-32-126 0-31 6-63 17-96 11-32 28-64 51-93s51-53 87-70c35-19 78-28 126-28 41 0 76 7 106 21 30 13 56 30 78 53 20 23 36 49 45 79l-12 17 28-154h54l-62 508h-61l19-148 8 24c-8 14-20 30-36 46-17 17-35 31-56 44s-44 24-70 31c-26 8-55 10-84 10zm29-50c35 0 68-7 97-22 31-15 57-36 78-62 22-27 36-58 42-93l8-74c-3-34-12-64-31-90-18-28-42-49-72-65-30-15-63-23-100-23-42 0-76 8-105 23-29 16-52 36-69 60-18 24-31 48-39 74-7 26-11 50-11 71 0 37 8 71 26 102 17 30 41 54 72 72s66 27 104 27zm-570-465-15 135c16-32 37-59 62-81s53-38 84-50 60-18 89-18l-9 59c-38 0-75 9-109 26-34 18-61 41-83 70-23 28-36 61-40 98l-34 269h-61l62-508h54zm-508 465c26 0 51-4 75-13s46-20 65-35l26 47c-25 17-52 30-81 39-29 10-59 14-90 14-49 0-94-10-134-31-38-22-69-52-91-90-21-37-32-81-32-129 0-37 7-72 21-106 14-32 33-63 59-89 24-27 54-47 89-63s73-23 116-23c30 0 58 4 84 13 26 8 50 21 71 37 21 17 37 39 52 65 14 26 25 56 32 90l-464 144-10-47 429-133-22 19c-12-38-32-71-62-98-31-27-67-40-112-40-41 0-78 10-113 30-34 21-61 48-79 82-20 33-30 71-30 112 0 38 9 74 27 105 16 30 40 54 71 73 30 18 64 27 103 27zm-526-688h63l-29 230h159l-7 50h-159l-54 451h-61l55-451h-110l7-50h109l27-230zm-369 223h61l-62 508h-61l62-508zm6-162c1-12 7-22 18-31s22-13 34-12c12 0 22 4 30 13 8 8 11 18 10 30-1 14-7 24-17 33-11 8-22 12-34 12-12-1-22-6-30-14-8-9-12-19-11-31zm-676-253h63l-106 862h507l-8 61h-569l113-923zm-877 933c-19 0-39-2-62-6-23-5-45-13-65-25-21-12-37-28-52-49l32-38c12 16 26 30 42 40s34 17 52 21c18 5 35 7 53 7 36 0 65-11 84-32 19-22 29-42 29-62 0-22-6-40-19-53-11-13-26-24-45-33s-38-17-58-24c-32-13-59-30-80-50s-32-46-32-79c0-17 3-34 10-51 7-18 18-33 32-48 14-13 31-25 50-33 20-9 43-13 69-13 7 0 20 1 38 3 18 3 38 9 60 18s41 23 59 44l-32 42c-16-23-35-39-59-46-23-8-46-11-66-11-21 0-39 4-53 13-15 8-25 19-33 32-7 14-11 26-11 39 1 18 6 32 16 44 9 13 21 23 37 31 16 7 32 15 50 23 22 10 44 20 62 32 20 11 36 25 49 42 12 18 19 42 19 72 0 12-3 26-8 43s-15 34-28 50c-13 17-31 31-52 42-23 10-52 15-88 15zm-527-53c24 0 49-4 73-13 25-9 47-20 65-35l26 47c-24 17-51 30-80 39-30 10-60 14-90 14-50 0-95-10-134-31-39-22-70-52-91-90-21-37-32-81-32-129 0-37 7-72 21-106 13-32 32-63 58-89 25-27 55-47 89-63 35-16 74-23 116-23 30 0 59 4 85 13 25 8 49 21 70 37 21 17 39 39 53 65s24 56 31 90l-464 144-10-47 430-133-23 19c-11-38-32-71-62-98s-67-40-111-40c-41 0-79 10-113 30-34 21-60 48-80 82-20 33-30 71-30 112 0 38 9 74 27 105 17 30 41 54 71 73 30 18 65 27 105 27zm-553-465-15 135c16-32 37-59 62-81 26-22 53-38 84-50s61-18 89-18l-9 59c-38 0-75 9-109 26-33 18-61 41-83 70-23 28-36 61-40 98l-33 269h-62l63-508h53zm-619 522c-47 0-83-13-110-40s-37-63-32-108l46-374h61l-44 359c-4 29 4 54 22 75 18 22 45 33 83 35 34 0 66-9 97-26 31-18 57-41 78-71s33-64 38-101l34-271h61l-62 508h-55l13-143 6 15c-12 25-30 49-54 71-25 22-54 39-85 52-30 12-63 19-97 19zm-442-745h62l-28 230h158l-7 50h-157l-55 451h-61l54-451h-109l6-50h110l27-230zm-642 745c-47 0-84-13-110-40-27-27-38-63-32-108l46-374h60l-43 359c-4 29 4 54 22 75 17 22 45 33 83 35 34 0 65-9 96-26 31-18 58-41 78-71 21-30 34-64 39-101l34-271h60l-61 508h-56l14-143 6 15c-12 25-31 49-55 71s-53 39-84 52c-31 12-63 19-97 19zm-757-937h516l-8 61h-451l-47 380h401l-8 61h-401l-50 421h-65l113-923zm-925 880c25 0 50-4 73-13 25-9 47-20 66-35l26 47c-24 17-52 30-81 39-29 10-59 14-90 14-50 0-94-10-134-31-39-22-69-52-90-90-22-37-33-81-33-129 0-37 7-72 21-106 14-32 33-63 58-89 25-27 55-47 90-63 34-16 73-23 116-23 30 0 58 4 84 13 26 8 50 21 71 37 20 17 37 39 52 65 14 26 25 56 32 90l-464 144-10-47 429-133-23 19c-11-38-31-71-61-98-31-27-68-40-111-40-42 0-80 10-113 30-35 21-61 48-81 82-19 33-29 71-29 112 0 38 9 74 26 105 17 30 41 54 72 73 30 18 64 27 104 27zm-805-353c22-37 54-67 96-90 40-24 86-36 137-36 48 0 85 14 111 42s35 64 32 110l-46 370h-61l43-358c2-31-5-57-21-78-17-21-42-32-78-32s-71 8-102 25c-33 17-60 41-81 70-20 29-34 63-39 102l-34 271h-62l121-988h62l-75 613-3-21z">
    </path>
  </g>
</svg>
