<svg id="Layer_1" data-name="Layer 1" xmlns="http://www.w3.org/2000/svg" viewBox="0 0 231.71 168.19"><title>Logo_Updated_Tymczasowe_Black</title><polygon points="81.5 0 106.14 0.13 151.87 126.11 126.05 126.11 81.5 0"/><polygon points="81.5 0.13 104.11 75.9 106.14 126.11 81.5 126.11 81.5 0.13"/><polygon points="151.87 126.11 129.26 50.59 127.24 0.13 151.87 0.13 151.87 126.11"/><path d="M413.49,336.53l-15,126H353.75l-17-126H363.6c3.61,34.71,10,102,11.51,126,1.52-24.28,6.83-83.73,8.54-102.56l2.05-23.43Z" transform="translate(-181.78 -336.4)"/><polygon points="39.13 88.87 38.38 63.06 33.09 63.06 38.38 0.07 14.99 0.07 0 126.05 27.79 126.05 30.92 88.87 39.13 88.87"/><polygon points="38.38 0.07 48.97 126.05 76.76 126.05 61.77 0.07 38.38 0.07"/><path d="M228.81,492.37c0,1.67-.92,2.51-2.76,2.51h-7.3v9.72h-4.51V477.77h11.81c1.84,0,2.76.82,2.76,2.47Zm-4.55-.94V481.21h-5.51v10.22Z" transform="translate(-181.78 -336.4)"/><path d="M247.45,504.6h-4.71l-5-12.47v-2.41h4.43v-8.51h-5.68V504.6H232V477.77h12c1.81,0,2.71.82,2.71,2.47V490a2.11,2.11,0,0,1-1.29,2.2,10.53,10.53,0,0,1-2.93.25Z" transform="translate(-181.78 -336.4)"/><path d="M265.41,502.14c0,1.64-.92,2.46-2.74,2.46h-9.79c-1.79,0-2.68-.82-2.68-2.46v-21.9c0-1.65.89-2.47,2.68-2.47h9.79c1.82,0,2.74.82,2.74,2.47Zm-4.51-1V481.21h-6.19v19.94Z" transform="translate(-181.78 -336.4)"/><path d="M284.06,499.54a4.62,4.62,0,0,1-1.58,3.71,6.33,6.33,0,0,1-4.26,1.35H269V477.77h9.19a6.28,6.28,0,0,1,4.26,1.36,4.68,4.68,0,0,1,1.58,3.73Zm-4.53-.67V483.46q0-2.25-2.64-2.25h-3.35v19.94h3.24C278.61,501.15,279.53,500.39,279.53,498.87Z" transform="translate(-181.78 -336.4)"/><path d="M302.64,502.14c0,1.64-.93,2.46-2.78,2.46h-9.57c-1.83,0-2.74-.82-2.74-2.46V477.77h4.51v23.38h6.07V477.77h4.51Z" transform="translate(-181.78 -336.4)"/><path d="M321.1,502.14c0,1.64-.92,2.46-2.75,2.46h-9.41c-1.79,0-2.68-.82-2.68-2.46v-21.9c0-1.65.89-2.47,2.68-2.47h9.41c1.83,0,2.75.82,2.75,2.47v6.27h-4.49v-5.3h-5.84v19.94h5.84v-5.64h4.49Z" transform="translate(-181.78 -336.4)"/><path d="M337.75,481.32h-5V504.6h-4.49V481.32h-5v-3.55h14.43Z" transform="translate(-181.78 -336.4)"/><path d="M344.63,504.6h-4.51V477.77h4.51Z" transform="translate(-181.78 -336.4)"/><path d="M363.54,502.14c0,1.64-.91,2.46-2.74,2.46H351c-1.78,0-2.68-.82-2.68-2.46v-21.9c0-1.65.9-2.47,2.68-2.47h9.79c1.83,0,2.74.82,2.74,2.47Zm-4.51-1V481.21h-6.19v19.94Z" transform="translate(-181.78 -336.4)"/><path d="M382.44,504.6h-3.95l-7.22-16.89a9.25,9.25,0,0,1,.29,1.94v15h-4.4V477.77h3.95l7.23,16.54a9.25,9.25,0,0,1-.29-1.94v-14.6h4.39Z" transform="translate(-181.78 -336.4)"/></svg>