<svg xmlns="http://www.w3.org/2000/svg" width="242.808" height="74.287" viewBox="0 0 64.243 19.655" fill-rule="evenodd" fill="#fff"
  xmlns:v="https://vecta.io/nano">
  <path d="M9.828 0c2.714 0 5.171 1.1 6.949 2.879a9.8 9.8 0 0 1 2.879 6.949c0 .423-.027.839-.078 1.248h-.393c.054-.408.082-.825.082-1.248a9.41 9.41 0 0 0-2.764-6.674A9.41 9.41 0 0 0 9.828.389a9.41 9.41 0 0 0-6.674 2.764A9.41 9.41 0 0 0 .389 9.828c0 .423.028.839.082 1.248H.078A10.09 10.09 0 0 1 0 9.828c0-2.714 1.1-5.171 2.878-6.949A9.8 9.8 0 0 1 9.828 0zm8.999 13.784c-.495 1.124-1.193 2.137-2.049 2.993-1.778 1.778-4.235 2.878-6.949 2.878s-5.171-1.1-6.949-2.878c-.856-.856-1.555-1.869-2.049-2.993h.427a9.46 9.46 0 0 0 1.897 2.717 9.41 9.41 0 0 0 6.674 2.764c2.606 0 4.966-1.057 6.674-2.764a9.46 9.46 0 0 0 1.897-2.717zM9.418 15.58C8.51 14.916 7.671 14.098 8 12.866c.137-.463.489-.868.987-1.262l-.062-.034c-.959-.53-2.382-1.404-2.856-1.97-.932-1.205-.142-2.918 1.06-3.705l1.532.165c.174 1.049-1.306.922-1.7 1.351-1.2 1.289.784 2.362 2.528 3.437l-.024-1.382v-.29l-.057-2.64c-.009-.5.708-.518.754-.022l-.072 2.68-.008.272-.022 1.407c1.754-1.084 3.778-2.164 2.569-3.463-.393-.428-1.863-.304-1.703-1.339l1.566-.157c1.185.796 1.953 2.489 1.028 3.684-.473.566-1.897 1.44-2.856 1.97l-.062.034c.499.395.85.799.987 1.262.329 1.232-.509 2.05-1.418 2.713l.109.106c.376.451.621 1.037.732 1.667.109.55-.266.638-.425-.002a3.44 3.44 0 0 0-.609-1.181l.001 2.039c-.024.209-.37.21-.391 0l-.001-2.032a3.56 3.56 0 0 0-.586 1.174c-.102.575-.525.636-.425-.002.112-.629.356-1.214.732-1.664l.109-.106zM6.41 4.767h.002l.006-.001.008-.002.008-.002h.001l.007-.002.008-.002.008-.002h0l.015-.004.008-.002h.001l.008-.002.008-.002.007-.002h.001l.008-.002.008-.002.006-.002h.002l.008-.002.008-.002.005-.001.003-.001.008-.002.008-.002.004-.001.004-.001.008-.002.011-.003.005-.001.008-.002.008-.002h.003l.005-.001.008-.002.008-.002.002-.001.006-.002.008-.002.008-.002h.001l.007-.002.008-.002.008-.002h0l.008-.002.008-.002.007-.002h.001l.008-.002.008-.002.006-.002h.002l.008-.002.008-.002.006-.002.002-.001.008-.002.008-.002.005-.001.003-.001.008-.002.008-.002.004-.001.004-.001.008-.003.008-.002.003-.001.004-.002.008-.002.008-.003.002-.001.005-.002.008-.003.008-.003.002-.001.006-.002.008-.003.008-.003h.001l.007-.002.007-.003.008-.003.008.008.008.007.008.007.008.007.009.007.009.007.009.007h0l.009.007.009.007.009.007.009.007.009.007h0l.009.006h0l.009.006.009.006.009.006.01.006.009.006h0l.01.006.01.006h0l.01.006h0l.01.005.01.005h0l.01.005.01.005.01.005h0l.01.005h0l.01.005.01.005.01.005.01.004.011.004.011.004.011.004.011.004.011.004.011.004h0l.011.004.011.003.011.003h0l.011.003h0l.011.003h0l.011.003.011.003.011.003.011.002.011.002.011.002.011.002.012.002.011.002.012.002.011.002h0l.012.002.012.001.012.001.012.001.012.001.012.001.012.001h.012l.012.001h.012.012a.97.97 0 0 0 .968-.968v-.013-.013-.013l-.001-.013v-.013l-.001-.012-.001-.013-.001-.013-.001-.012-.002-.012-.002-.012-.002-.012-.002-.012-.002-.012-.002-.012h0l-.002-.012h0l-.003-.012-.003-.012-.003-.012-.003-.012h0l-.003-.012h0l-.003-.012-.004-.012-.003-.012-.004-.011-.004-.011-.004-.011h0l-.004-.011h0l-.004-.011-.004-.011-.005-.011h0l-.005-.011h0l-.005-.011-.005-.011-.005-.011-.005-.011-.005-.011h0l-.005-.011h0l-.006-.011-.006-.01-.006-.01h0l-.006-.01h0l-.006-.01-.006-.01h0l-.006-.01-.006-.01h0l-.007-.01h0l-.007-.01-.007-.01h0l-.007-.01-.007-.009h0l-.007-.009h0l-.007-.009-.007-.009-.008-.009-.008-.009-.008-.009-.008-.009-.008-.009-.008-.009-.008-.009-.008-.008-.008-.008-.008-.008.003-.004.003-.004.003-.004.003-.004.003-.004.003-.004.003-.004.003-.004.003-.004.003-.004.003-.004.003-.004.003-.004.003-.004.003-.004.003-.004.003-.004.003-.004h0l.003-.004.003-.004.003-.004.003-.004.003-.004.003-.004.003-.004.003-.004.003-.004.003-.004.003-.004.003-.004.003-.004.003-.004.003-.004h0l.003-.004.003-.004.003-.004.003-.004.003-.004.003-.004.003-.004.003-.004.003-.004h0l.003-.004.003-.004h0l.003-.004.003-.004h0l.003-.004.003-.004.003-.004.003-.004h0l.003-.004h0l.003-.004.003-.004.004-.004.003-.004h0l.003-.004.003-.004h0l.004-.004.004-.004h0l.004-.004h0l.004-.004h0l.003-.004h0l.004-.004h0l.004-.004h0l.029-.035h0l.031-.033h0l.032-.032h0l.033-.031h0l.035-.03h0l.036-.029h0l.037-.028h0l.038-.027h0l.04-.026h0l.041-.025.042-.024h0l.043-.022h0l.043-.021h0l.044-.02h0l.045-.019h0l.046-.018h0l.047-.017h0l.047-.016.048-.015.049-.014h0l.049-.012.05-.011h0l.05-.01h0l.05-.009h0l.051-.008.051-.007h0l.051-.006h0l.051-.005.052-.004.052-.002.052-.001h.052l.052.001h0l.052.002.052.003.052.004h0l.051.005.051.006h0l.051.007.05.009.05.01.05.011.049.012.048.013.048.014.047.015.047.016h0l.046.017.045.018.044.019.043.02.042.022h0l.041.023h0l.04.024.039.025.038.026h0l.037.027h0l.036.028.035.029.033.03h0l.032.031h0l.031.032h0l.029.033h0l.028.034h0l.005.006h0l.005.005h0l.005.006h0l.005.005h0l.005.005h0l.005.005h0l.005.005h0l.005.005h0l.005.005h0l.005.005h0l.005.005h0l.005.005h0l.005.005.005.005h0l.004.005h0l.004.005h0l.004.005.004.005.004.005h0l.004.005.004.005.004.005.004.005.004.005h0l.004.005.004.005h0l.004.005h0l.008.009.004.005.004.005.004.005h0l.004.005h0l.004.004.004.004.004.005h0l.004.004.004.004.004.004h0l.003.004.004.004h0l.003.004h0l.007.009h0l.003.004h0l.003.004h0l.003.004h0l.003.004.003.004h0l.003.004h0l.003.004.003.004h0l.003.004h0l.003.004h0l.003.004h0l.003.004h0l.003.004h0l.003.004h0l.003.004h0l.003.004h0l.003.004h0l.003.004h0l.003.004h0l.003.004h0l-.004.004-.004.004h0l-.007.008-.004.005-.003.003h0l-.007.008h0l-.005.006-.002.002h0l-.007.008h0l-.006.007-.001.001h0l-.007.008h0l-.007.009h0 0l-.006.009h0l-.007.009h0l-.001.001-.006.008h0l-.006.009h0l-.001.002-.005.007h0l-.006.009h0l-.002.003-.004.006h0l-.006.009h0l-.002.004-.003.005h0l-.005.009-.003.005-.002.004h0l-.006.01-.003.007-.002.003h0l-.005.01-.004.008-.001.002h0l-.005.01h0l-.004.009v.001l-.005.01-.005.01h0 0l-.004.01h0l-.004.01h0v.001l-.004.009-.004.01-.001.003-.003.008h0l-.004.01h0l-.004.01h0l-.004.01-.004.011-.004.011-.002.006-.001.004h0l-.003.011h0l-.002.008v.003l-.003.011-.003.011-.003.011h0l-.002.01v.001h0l-.003.011-.002.011v.001l-.002.01-.002.011v.002l-.002.009-.002.011h0l-.001.003-.001.008-.002.011-.001.011-.001.012-.001.011-.001.011-.001.012-.001.012-.001.009v.003.012.012.012.012a.97.97 0 0 0 .968.968h.012.012.001.002.009l.012-.001h.002l.01-.001h.012l.012-.001.012-.001.012-.001.012-.001.012-.002.011-.002.006-.001.005-.001.012-.002.007-.001.004-.001.011-.002.011-.002.011-.002.011-.003.011-.003.01-.002h.001l.011-.003.011-.003.011-.003h0l.011-.003h.001l.01-.003.011-.004.011-.004.011-.004.011-.004.011-.004.011-.004.01-.004.01-.004.01-.004.01-.005.01-.005h0l.006-.003.004-.002.01-.005.01-.005.01-.005.008-.004.002-.001.01-.005h0l.009-.005h.001 0l.01-.006h0l.009-.006h0l.019-.012h.001l.009-.006.009-.006h0l.001-.001.008-.005h0l.009-.006h0l.002-.002.007-.005.009-.007.009-.007.009-.007h0l.004-.003.005-.004.009-.007.004-.003.004-.004h0l.008-.007h0l.005-.004.003-.003h0l.008-.007h0l.006-.005.003-.002h0l.008-.007h0l.027.01.007.002.007.002.002.001.005.002.007.002.02.007.007.002.003.001.004.001.007.002.021.007.007.002.005.002h.002l.007.002.007.002.005.002h.002l.007.002.007.002.007.002h.001l.007.002.007.002.007.002h0l.007.002.007.002.007.002h.001l.006.002.007.002.007.002.002.001.005.001.007.002.007.002.002.001.005.001.007.002.007.002.003.001.004.001.007.002.007.002.004.001.003.001.007.002.007.002.005.001h.002l.007.002.007.002.006.002h.002l.007.002.022.005.007.002.007.002h0l.007.002.007.002.007.002h.001l.006.002.022.005.007.002c.321.085.609.175.617.429l.01.002c-.692.158-1.386.274-2.083.351l-.109.01c-1.302.132-2.511.128-3.865-.009l-.008-.001a19.72 19.72 0 0 1-2.081-.339l.031-.01-.02-.003c0-.252.268-.341.582-.423zm3.103 7.463c-.685.447-.898.8-.895 1.539.002.421.448.84.944 1.271zm.527-.024c.715.459.935.812.932 1.563-.001.43-.467.858-.976 1.299z"/>
  <path d="M7.58 3.191h.014a.73.73 0 0 1 .714.729.73.73 0 0 1-.714.729H7.58h-.004-.014c-.11-.002-.215-.029-.308-.075h-.001l-.001-.001a.65.65 0 0 1-.144-.094l-.001-.001c-.048-.041-.091-.087-.127-.138-.147-.196-.299-.537-.423-1.146h.961l.043-.002h.014zm4.643 0l.059.002h.959c-.124.61-.276.951-.424 1.148-.036.051-.079.097-.126.137l-.005.004-.007.006-.007.005a.62.62 0 0 1-.116.075h-.002l-.009.004a.73.73 0 1 1-.323-1.382zm-6.531 9.946a.4.4 0 0 1-.004.062c-.003.017-.006.031-.011.041s-.01.017-.016.021-.013.007-.021.007h-.934c-.007 0-.014-.002-.02-.007s-.012-.012-.017-.021-.008-.024-.011-.041a.41.41 0 0 1-.004-.062.52.52 0 0 1 .004-.063c.002-.017.005-.031.01-.041s.01-.018.016-.023.013-.007.021-.007h.315V11.9l-.273.151c-.02.01-.036.016-.049.018s-.022-.001-.03-.008-.013-.02-.015-.038a.71.71 0 0 1-.003-.077l.001-.052a.17.17 0 0 1 .006-.035c.003-.01.008-.017.014-.024s.015-.013.025-.02l.364-.236c.023-.011.031-.013.042-.014a.42.42 0 0 1 .042-.003l.066-.001.08.002c.02.001.036.004.046.007s.017.007.021.012.005.012.005.02v1.4h.276c.008 0 .015.003.022.007s.012.013.017.023.008.024.01.041a.47.47 0 0 1 .004.063zm1.379-.793c0 .069-.004.14-.011.214a1.22 1.22 0 0 1-.04.217.98.98 0 0 1-.081.202.6.6 0 0 1-.134.167.61.61 0 0 1-.199.113.82.82 0 0 1-.277.042c-.038 0-.075-.002-.112-.008l-.101-.02c-.031-.008-.057-.016-.078-.025s-.037-.017-.047-.027-.017-.022-.021-.04a.34.34 0 0 1-.007-.073l.002-.07c.001-.017.004-.031.008-.04s.009-.016.014-.019.013-.004.021-.004.025.003.044.009l.07.021a.88.88 0 0 0 .093.021c.035.006.074.009.117.009.073 0 .135-.013.186-.039s.092-.062.123-.106a.46.46 0 0 0 .069-.154.85.85 0 0 0 .025-.185.68.68 0 0 1-.146.066.62.62 0 0 1-.195.028.67.67 0 0 1-.229-.035.37.37 0 0 1-.153-.102.41.41 0 0 1-.086-.162.8.8 0 0 1-.027-.216.7.7 0 0 1 .038-.234c.025-.071.063-.133.113-.185s.112-.092.186-.121.16-.043.258-.043a.7.7 0 0 1 .206.027c.059.018.11.045.152.079a.44.44 0 0 1 .106.124.66.66 0 0 1 .067.162 1.01 1.01 0 0 1 .034.192l.01.216zm-.342-.047a1.39 1.39 0 0 0-.016-.234.5.5 0 0 0-.047-.151c-.021-.038-.047-.064-.078-.08s-.068-.024-.11-.024-.076.008-.106.022a.19.19 0 0 0-.074.061c-.02.027-.035.057-.044.093a.46.46 0 0 0-.014.118.53.53 0 0 0 .013.122.23.23 0 0 0 .039.088.16.16 0 0 0 .07.052c.029.012.063.017.105.017a.45.45 0 0 0 .143-.023.44.44 0 0 0 .12-.061zm6.823.832l-.003.065c-.001.018-.006.032-.01.044s-.01.019-.017.024-.015.007-.023.007h-.974a.24.24 0 0 1-.05-.005c-.014-.003-.026-.01-.035-.02s-.015-.025-.019-.044-.006-.044-.006-.075a.7.7 0 0 1 .004-.074c.002-.02.007-.039.014-.055a.25.25 0 0 1 .027-.047.53.53 0 0 1 .042-.05l.293-.314.142-.167a1.06 1.06 0 0 0 .084-.137.51.51 0 0 0 .041-.115.5.5 0 0 0 .011-.099.25.25 0 0 0-.013-.082c-.009-.026-.023-.048-.041-.067s-.041-.034-.067-.045a.26.26 0 0 0-.096-.016.44.44 0 0 0-.137.02.65.65 0 0 0-.105.044l-.076.045c-.02.013-.036.02-.047.02s-.015-.003-.021-.008-.01-.014-.013-.026-.007-.029-.009-.049l-.003-.075.002-.05a.2.2 0 0 1 .006-.035c.002-.01.006-.019.01-.026s.012-.017.023-.027a.32.32 0 0 1 .06-.04.74.74 0 0 1 .108-.047 1.03 1.03 0 0 1 .141-.038c.051-.01.105-.016.161-.016a.73.73 0 0 1 .231.033c.066.022.121.053.164.093s.077.087.098.142a.48.48 0 0 1 .032.176c0 .055-.005.109-.016.162a.62.62 0 0 1-.065.172 1.38 1.38 0 0 1-.14.204 4.11 4.11 0 0 1-.239.26l-.197.203h.668c.008 0 .017.003.024.008a.06.06 0 0 1 .019.024c.005.01.009.025.012.043s.004.039.004.064zm1.385-.426c0 .086-.013.165-.039.238a.52.52 0 0 1-.115.189.53.53 0 0 1-.187.124.68.68 0 0 1-.256.045.69.69 0 0 1-.205-.027.46.46 0 0 1-.152-.077c-.042-.033-.078-.074-.105-.122a.7.7 0 0 1-.065-.163 1.13 1.13 0 0 1-.033-.196l-.009-.225.01-.208c.006-.072.019-.144.038-.213s.046-.137.079-.2a.59.59 0 0 1 .132-.166.6.6 0 0 1 .195-.113.79.79 0 0 1 .272-.041.84.84 0 0 1 .1.006l.094.015a.46.46 0 0 1 .073.021c.02.008.033.015.04.021s.012.012.015.019.007.015.009.023a.13.13 0 0 1 .004.031l.001.045-.002.067c-.001.018-.004.032-.007.042s-.009.017-.015.021-.013.007-.022.007-.024-.003-.041-.009l-.06-.019a.7.7 0 0 0-.083-.018.68.68 0 0 0-.111-.008.38.38 0 0 0-.179.039c-.049.026-.089.062-.119.107a.46.46 0 0 0-.067.156.94.94 0 0 0-.022.189.69.69 0 0 1 .066-.037.52.52 0 0 1 .081-.031l.095-.022a.72.72 0 0 1 .109-.008c.086 0 .159.012.22.035s.111.058.15.101.068.097.086.158.027.131.027.207zm-.337.033a.54.54 0 0 0-.012-.118.22.22 0 0 0-.038-.085.16.16 0 0 0-.069-.052c-.029-.012-.064-.018-.105-.018a.4.4 0 0 0-.072.007.52.52 0 0 0-.069.018.48.48 0 0 0-.065.028c-.021.011-.041.022-.059.035a1.51 1.51 0 0 0 .016.233.46.46 0 0 0 .047.149.18.18 0 0 0 .077.078c.031.015.067.023.108.023s.075-.008.105-.022a.21.21 0 0 0 .076-.063.29.29 0 0 0 .046-.095c.011-.036.016-.076.016-.118zM9.638 9.147l.078-.043a.72.72 0 0 0-.243-.363c-.082-.058-.073-.217-.152-.325-.279-.464-.803-.602-1.604-.376.24.444.53.846 1.159.969.431.092.402-.256.565-.142.081.05.15.12.197.279z"/>
  <path d="M9.922 9.147l-.078-.043a.72.72 0 0 1 .243-.363c.082-.058.073-.217.152-.325.279-.464.803-.602 1.604-.376-.24.444-.53.846-1.159.969-.431.092-.402-.256-.565-.142-.081.05-.15.12-.197.279zm13.366-4.82v1.29h-.4V2.205h.937c.365 0 .647.089.849.266s.3.428.3.752a1.03 1.03 0 0 1-.334.794c-.223.206-.525.309-.903.309zm0-1.76v1.399h.419c.275 0 .486-.063.631-.189s.218-.305.218-.534c0-.451-.267-.676-.8-.676zm3.484 3.1c-.426 0-.766-.14-1.022-.421s-.384-.645-.384-1.094c0-.483.131-.868.391-1.155s.616-.431 1.065-.431c.415 0 .748.139 1.001.418s.38.644.38 1.095c0 .489-.13.876-.389 1.161s-.606.426-1.042.426zm.025-2.783a.97.97 0 0 0-.768.341c-.197.227-.295.526-.295.896s.096.667.288.893.442.338.75.338c.329 0 .589-.107.779-.322s.284-.516.284-.902c0-.396-.091-.702-.276-.919s-.439-.324-.762-.324zm3.852-.184l-1.758 2.599h1.716v.318h-2.241v-.099l1.743-2.584h-1.603v-.318h2.143zm2.905 2.917h-.431l-1.544-2.392a1.01 1.01 0 0 1-.096-.188h-.012a3.19 3.19 0 0 1 .016.412v2.168h-.351V2.616h.456l1.503 2.354.121.201h.009a3.09 3.09 0 0 1-.021-.441V2.616h.352zm3.109 0h-.389l-.318-.841h-1.273l-.299.841h-.391l1.151-3.001h.364zM35.84 4.46l-.47-1.28c-.015-.042-.031-.109-.046-.201h-.009a1.17 1.17 0 0 1-.048.201L34.8 4.459zm3.683 1.157h-.431l-1.544-2.392a1.01 1.01 0 0 1-.096-.188h-.012c.011.064.016.201.016.412v2.168h-.351V2.616h.456l1.503 2.354.121.201h.009c-.014-.086-.021-.234-.021-.441V2.616h.352zm4.51-1.38c0 .957-.432 1.436-1.297 1.436-.827 0-1.242-.46-1.242-1.382V2.205h.4v2.06c0 .699.296 1.049.885 1.049.569 0 .854-.338.854-1.013V2.205h.4zm3.217 1.38h-.431l-1.544-2.392a.99.99 0 0 1-.096-.188h-.012c.011.064.016.201.016.412v2.168h-.351V2.616h.456L46.79 4.97l.121.201h.009c-.014-.086-.021-.234-.021-.441V2.616h.352zm1.138 0h-.351V2.616h.351zm3.02-3.001l-1.111 3.001h-.387l-1.088-3.001h.391l.831 2.379a1.52 1.52 0 0 1 .061.266h.008a1.32 1.32 0 0 1 .069-.27l.848-2.375zm2.021 3.001h-1.59V2.616h1.523v.318H52.19v.998h1.084v.316H52.19v1.051h1.239zm2.729 0h-.418l-.503-.841c-.046-.078-.091-.144-.134-.2s-.088-.1-.133-.134a.46.46 0 0 0-.146-.076.59.59 0 0 0-.177-.024h-.289v1.276h-.351V2.616h.896a1.27 1.27 0 0 1 .363.049.81.81 0 0 1 .289.149.69.69 0 0 1 .191.25.83.83 0 0 1 .069.351c0 .104-.016.201-.047.288a.74.74 0 0 1-.134.233.83.83 0 0 1-.209.175 1.05 1.05 0 0 1-.276.112v.009a.62.62 0 0 1 .131.076.74.74 0 0 1 .105.102c.034.039.067.083.1.133l.109.172zm-1.8-2.683v1.089h.477a.72.72 0 0 0 .244-.04.55.55 0 0 0 .194-.114.52.52 0 0 0 .128-.182c.031-.072.046-.152.046-.241 0-.161-.051-.286-.156-.376s-.254-.135-.451-.135zm2.072 2.561V5.08a.81.81 0 0 0 .17.113c.066.034.136.062.209.085s.147.041.221.054.143.019.205.019c.216 0 .378-.04.485-.121s.16-.195.16-.346a.4.4 0 0 0-.054-.211.61.61 0 0 0-.147-.164c-.063-.05-.137-.097-.223-.142l-.278-.144-.293-.161a1.22 1.22 0 0 1-.236-.18.77.77 0 0 1-.158-.223c-.039-.083-.058-.18-.058-.291 0-.137.03-.256.09-.357s.139-.184.236-.25.209-.114.334-.146a1.53 1.53 0 0 1 .381-.048c.296 0 .511.035.647.106v.396c-.177-.123-.405-.184-.682-.184a1.1 1.1 0 0 0-.231.024.66.66 0 0 0-.205.078.46.46 0 0 0-.146.141.37.37 0 0 0-.056.209.43.43 0 0 0 .043.199.51.51 0 0 0 .126.153c.055.047.124.091.204.134l.277.143.306.167c.096.059.181.124.253.194a.87.87 0 0 1 .173.236.66.66 0 0 1 .064.297c0 .148-.029.274-.086.376a.71.71 0 0 1-.234.25c-.099.064-.212.111-.34.139a1.87 1.87 0 0 1-.406.043 1.85 1.85 0 0 1-.176-.011l-.214-.034a1.73 1.73 0 0 1-.206-.054c-.065-.021-.117-.046-.156-.072zm2.768.121h-.351v-3h.351zm2.563-2.683h-.866v2.683h-.351V2.933h-.864v-.318h2.082zm2.482-.318l-.989 1.891v1.109h-.352v-1.1l-.964-1.9h.399l.672 1.356a4.22 4.22 0 0 1 .073.184h.006a1.2 1.2 0 0 1 .079-.184l.703-1.356zm-40.201 8.496c-.426 0-.766-.14-1.022-.421s-.384-.645-.384-1.094c0-.483.131-.868.391-1.155s.616-.431 1.065-.431c.415 0 .749.139 1.001.418s.38.644.38 1.095c0 .489-.13.876-.389 1.161s-.606.426-1.042.426zm.025-2.783a.97.97 0 0 0-.768.341c-.197.227-.295.526-.295.896s.096.667.288.893.442.338.75.338c.329 0 .589-.107.779-.322s.284-.516.284-.902c0-.396-.091-.702-.276-.918s-.439-.324-.762-.324zm3.52.05h-1.172v1.038h1.084v.316h-1.084v1.328h-.351V8.061h1.523zm3.605 2.683h-1.808V7.65h1.732v.361h-1.333v1.135h1.233v.359h-1.233V10.7h1.408zm2.645-.126c-.221.117-.498.176-.829.176-.427 0-.769-.137-1.026-.412s-.385-.635-.385-1.081c0-.48.145-.868.433-1.163s.655-.444 1.099-.444c.284 0 .52.041.707.123v.375c-.215-.12-.452-.18-.711-.18-.344 0-.624.115-.838.345s-.321.538-.321.923c0 .366.1.657.3.874s.463.326.788.326a1.48 1.48 0 0 0 .783-.201zm1.764.176c-.426 0-.766-.14-1.022-.421s-.384-.645-.384-1.094c0-.483.131-.868.391-1.155s.616-.431 1.065-.431c.415 0 .749.139 1.001.418s.38.644.38 1.095c0 .489-.13.876-.389 1.161s-.606.426-1.042.426zm.025-2.783a.97.97 0 0 0-.768.341c-.197.227-.295.526-.295.896s.096.667.288.893.442.338.75.338c.329 0 .589-.107.778-.322s.284-.516.284-.902c0-.396-.091-.702-.276-.918s-.439-.324-.762-.324zm4.416 2.733h-.431l-1.544-2.392a.99.99 0 0 1-.096-.188h-.012a3.21 3.21 0 0 1 .016.412v2.168h-.351v-3h.456l1.503 2.354.121.201h.009c-.014-.086-.021-.234-.021-.441V8.061h.352zm1.996.05c-.426 0-.766-.14-1.022-.421s-.384-.645-.384-1.094c0-.483.131-.868.391-1.155s.616-.431 1.065-.431c.415 0 .748.139 1.001.418s.38.644.38 1.095c0 .489-.13.876-.389 1.161s-.606.426-1.042.426zm.025-2.783a.97.97 0 0 0-.768.341c-.197.227-.295.526-.295.896s.096.667.288.893.442.338.75.338c.329 0 .589-.107.779-.322s.284-.516.284-.902c0-.396-.091-.702-.276-.918s-.439-.324-.762-.324zm4.72 2.733h-.349V9.049l.007-.271.022-.325h-.009a.8.8 0 0 1-.037.111l-.054.119-.052.104-.035.069-.77 1.423h-.171l-.77-1.419-.036-.072-.052-.105-.051-.118c-.016-.041-.029-.078-.036-.113h-.009l.013.243.004.357v2.009h-.339v-3h.439l.779 1.427.086.176c.024.054.041.102.052.142h.013l.055-.146a1.73 1.73 0 0 1 .089-.18l.776-1.418h.435zm1.139 0h-.351v-3h.351zm2.831-.126c-.221.117-.498.176-.829.176-.427 0-.769-.137-1.026-.412s-.385-.635-.385-1.081c0-.48.145-.868.433-1.163s.655-.444 1.099-.444c.284 0 .52.041.707.123v.375c-.215-.12-.452-.18-.711-.18-.344 0-.624.115-.838.345s-.321.538-.321.923c0 .366.1.657.3.874s.463.326.788.326a1.48 1.48 0 0 0 .783-.201zm.471.004v-.414a.78.78 0 0 0 .17.113 1.38 1.38 0 0 0 .209.085 1.78 1.78 0 0 0 .221.054 1.28 1.28 0 0 0 .205.019c.216 0 .378-.04.485-.121s.16-.195.16-.346a.4.4 0 0 0-.054-.211.61.61 0 0 0-.147-.164 1.43 1.43 0 0 0-.223-.142l-.278-.144-.293-.161a1.26 1.26 0 0 1-.236-.18.77.77 0 0 1-.158-.223c-.039-.083-.058-.18-.058-.291 0-.137.03-.256.09-.357s.139-.184.236-.25a1.07 1.07 0 0 1 .334-.146c.124-.032.252-.048.381-.048.296 0 .511.035.647.106v.396c-.177-.123-.405-.184-.682-.184a1.1 1.1 0 0 0-.231.024.66.66 0 0 0-.205.078.46.46 0 0 0-.146.141.37.37 0 0 0-.056.209.43.43 0 0 0 .043.199.49.49 0 0 0 .126.153c.056.046.124.091.204.134l.277.143.306.167a1.39 1.39 0 0 1 .253.194.87.87 0 0 1 .173.236.66.66 0 0 1 .064.297c0 .148-.029.274-.086.376a.71.71 0 0 1-.234.25c-.098.064-.212.111-.34.139a1.9 1.9 0 0 1-.406.043 1.85 1.85 0 0 1-.176-.011l-.214-.034a1.72 1.72 0 0 1-.206-.054c-.065-.021-.117-.046-.156-.072zm-26.068 5.567h-.389l-.318-.841h-1.273l-.299.841h-.391l1.151-3.001h.364zm-.823-1.157l-.471-1.279c-.015-.042-.031-.109-.046-.201h-.009a1.19 1.19 0 0 1-.048.201l-.467 1.279zm3.683 1.157h-.431l-1.544-2.392a1 1 0 0 1-.096-.188h-.012c.011.064.016.201.016.412v2.168h-.351v-3.001h.456l1.503 2.354.121.201h.009a3.09 3.09 0 0 1-.021-.441v-2.114h.352zm.786 0v-3.001h.829c1.057 0 1.586.487 1.586 1.463 0 .463-.147.835-.441 1.116s-.686.421-1.179.421zm.351-2.683v2.365h.448c.394 0 .699-.106.918-.316s.329-.509.329-.896c0-.769-.409-1.153-1.226-1.153zm3.882 2.683v-3.411h.97c.295 0 .529.072.702.216a.7.7 0 0 1 .26.564.83.83 0 0 1-.158.504.84.84 0 0 1-.433.304v.01a.87.87 0 0 1 .552.26c.138.147.207.338.207.572a.89.89 0 0 1-.314.709c-.209.181-.473.271-.793.271zm.4-3.05v1.102h.409c.218 0 .391-.053.516-.158s.188-.254.188-.447c0-.331-.218-.497-.655-.497zm0 1.461v1.228h.542c.235 0 .417-.056.546-.166a.57.57 0 0 0 .194-.457c0-.403-.274-.604-.823-.604zm4.534.376c0 .842-.38 1.264-1.141 1.264-.728 0-1.092-.405-1.092-1.216v-1.835h.351v1.812c0 .615.26.923.778.923.501 0 .751-.297.751-.891v-1.844h.351zm.609 1.092v-.414a.81.81 0 0 0 .17.113c.066.034.136.062.209.085a1.78 1.78 0 0 0 .221.054 1.28 1.28 0 0 0 .205.019c.216 0 .378-.04.485-.121s.16-.195.16-.346a.4.4 0 0 0-.054-.211.61.61 0 0 0-.147-.164 1.41 1.41 0 0 0-.223-.142l-.278-.144-.293-.161a1.26 1.26 0 0 1-.236-.18.75.75 0 0 1-.158-.223c-.039-.083-.058-.18-.058-.291 0-.137.03-.256.09-.357s.139-.184.236-.25.209-.114.334-.146a1.52 1.52 0 0 1 .381-.048c.296 0 .511.035.647.106v.396c-.177-.123-.405-.184-.682-.184-.077 0-.154.008-.231.024a.65.65 0 0 0-.205.078.46.46 0 0 0-.146.141c-.038.057-.056.126-.056.209a.43.43 0 0 0 .043.199.51.51 0 0 0 .126.153 1.26 1.26 0 0 0 .204.134l.277.143.306.167a1.39 1.39 0 0 1 .253.194.87.87 0 0 1 .173.236.66.66 0 0 1 .064.297c0 .148-.029.274-.086.376a.71.71 0 0 1-.234.25c-.099.064-.212.111-.34.139a1.87 1.87 0 0 1-.406.043 1.61 1.61 0 0 1-.176-.011l-.214-.034a1.73 1.73 0 0 1-.206-.054c-.065-.021-.117-.046-.156-.072zm2.768.121h-.351v-3.001h.351zm3.208 0h-.431l-1.544-2.392a1.01 1.01 0 0 1-.096-.188h-.012c.011.064.016.201.016.412v2.168h-.351v-3.001h.456l1.503 2.354.121.201h.009a3.11 3.11 0 0 1-.021-.441v-2.114h.352zm2.376 0h-1.59v-3.001h1.523v.318h-1.172v.999h1.084v.316h-1.084v1.051h1.239zm.438-.121v-.414a.78.78 0 0 0 .17.113c.066.034.136.062.209.085a1.78 1.78 0 0 0 .221.054 1.28 1.28 0 0 0 .205.019c.216 0 .378-.04.485-.121s.16-.195.16-.346a.4.4 0 0 0-.054-.211.61.61 0 0 0-.147-.164 1.41 1.41 0 0 0-.223-.142l-.278-.144-.293-.161a1.26 1.26 0 0 1-.236-.18.77.77 0 0 1-.158-.223c-.039-.083-.058-.18-.058-.291 0-.137.03-.256.09-.357s.139-.184.236-.25.209-.114.334-.146a1.52 1.52 0 0 1 .381-.048c.296 0 .511.035.647.106v.396c-.177-.123-.405-.184-.682-.184a1.1 1.1 0 0 0-.231.024.66.66 0 0 0-.205.078.46.46 0 0 0-.146.141c-.038.057-.056.126-.056.209a.43.43 0 0 0 .043.199.49.49 0 0 0 .126.153 1.26 1.26 0 0 0 .204.134l.277.143.306.167a1.39 1.39 0 0 1 .253.194.87.87 0 0 1 .173.236.66.66 0 0 1 .064.297c0 .148-.029.274-.086.376a.71.71 0 0 1-.234.25 1.03 1.03 0 0 1-.34.139 1.87 1.87 0 0 1-.406.043 1.61 1.61 0 0 1-.176-.011l-.214-.034a1.73 1.73 0 0 1-.206-.054c-.065-.021-.117-.046-.156-.072zm2.277 0v-.414a.78.78 0 0 0 .17.113c.066.034.136.062.209.085a1.78 1.78 0 0 0 .221.054 1.28 1.28 0 0 0 .205.019c.216 0 .378-.04.485-.121s.16-.195.16-.346a.4.4 0 0 0-.054-.211.61.61 0 0 0-.147-.164 1.41 1.41 0 0 0-.223-.142l-.278-.144-.293-.161a1.26 1.26 0 0 1-.236-.18.77.77 0 0 1-.158-.223c-.039-.083-.058-.18-.058-.291 0-.137.03-.256.09-.357s.139-.184.236-.25.209-.114.334-.146a1.52 1.52 0 0 1 .381-.048c.296 0 .511.035.647.106v.396c-.177-.123-.405-.184-.682-.184-.077 0-.154.008-.231.024a.65.65 0 0 0-.205.078.46.46 0 0 0-.146.141c-.038.057-.056.126-.056.209a.43.43 0 0 0 .043.199.51.51 0 0 0 .126.153 1.26 1.26 0 0 0 .204.134l.277.143.306.167a1.39 1.39 0 0 1 .253.194.87.87 0 0 1 .173.236.66.66 0 0 1 .064.297c0 .148-.029.274-.086.376a.71.71 0 0 1-.234.25c-.099.064-.212.111-.34.139a1.87 1.87 0 0 1-.406.043 1.61 1.61 0 0 1-.176-.011l-.214-.034a1.77 1.77 0 0 1-.206-.054c-.065-.021-.117-.046-.156-.072zM38.232 1.844h.29l-.145.682h-.29z"/>
</svg>